<mxfile host="app.diagrams.net" modified="2023-04-27T17:00:09.660Z" agent="Mozilla/5.0 (X11; Linux x86_64) AppleWebKit/537.36 (KHTML, like Gecko) Chrome/112.0.0.0 Safari/537.36" version="21.2.3" etag="H3LI1dp0iEYYMprBq7jd" type="github">
  <diagram name="Page-1" id="gsyIwqnFufWxI5sytpO7">
    <mxGraphModel>
      <root>
        <mxCell id="0" />
        <mxCell id="1" parent="0" />
        <mxCell id="2" value="Login.jsx" style="whiteSpace=wrap;strokeWidth=2;" vertex="1" parent="1">
          <mxGeometry x="107" width="78" height="32" as="geometry" />
        </mxCell>
        <mxCell id="3" value="setUsername action" style="whiteSpace=wrap;strokeWidth=2;" vertex="1" parent="1">
          <mxGeometry x="67" y="99" width="157" height="32" as="geometry" />
        </mxCell>
        <mxCell id="4" value="setPassword action" style="whiteSpace=wrap;strokeWidth=2;" vertex="1" parent="1">
          <mxGeometry x="69" y="198" width="154" height="32" as="geometry" />
        </mxCell>
        <mxCell id="5" value="login action" style="whiteSpace=wrap;strokeWidth=2;" vertex="1" parent="1">
          <mxGeometry x="98" y="297" width="96" height="32" as="geometry" />
        </mxCell>
        <mxCell id="6" value="API Call" style="whiteSpace=wrap;strokeWidth=2;" vertex="1" parent="1">
          <mxGeometry x="25" y="396" width="73" height="32" as="geometry" />
        </mxCell>
        <mxCell id="7" value="Success action" style="whiteSpace=wrap;strokeWidth=2;" vertex="1" parent="1">
          <mxGeometry y="495" width="123" height="32" as="geometry" />
        </mxCell>
        <mxCell id="8" value="User Interface" style="whiteSpace=wrap;strokeWidth=2;" vertex="1" parent="1">
          <mxGeometry x="4" y="594" width="116" height="32" as="geometry" />
        </mxCell>
        <mxCell id="9" value="Failure action" style="whiteSpace=wrap;strokeWidth=2;" vertex="1" parent="1">
          <mxGeometry x="175" y="396" width="111" height="32" as="geometry" />
        </mxCell>
        <mxCell id="10" value="User Interface" style="whiteSpace=wrap;strokeWidth=2;" vertex="1" parent="1">
          <mxGeometry x="173" y="495" width="116" height="32" as="geometry" />
        </mxCell>
        <mxCell id="11" value="Form Submission" style="curved=1;startArrow=none;endArrow=block;exitX=0.4981219951923077;exitY=1;entryX=0.5022516918789809;entryY=0;" edge="1" parent="1" source="2" target="3">
          <mxGeometry relative="1" as="geometry">
            <Array as="points" />
          </mxGeometry>
        </mxCell>
        <mxCell id="12" value="Form Submission" style="curved=1;startArrow=none;endArrow=block;exitX=0.5022516918789809;exitY=1;entryX=0.4990488027597403;entryY=0;" edge="1" parent="1" source="3" target="4">
          <mxGeometry relative="1" as="geometry">
            <Array as="points" />
          </mxGeometry>
        </mxCell>
        <mxCell id="13" value="Form Submission" style="curved=1;startArrow=none;endArrow=block;exitX=0.4990488027597403;exitY=1;entryX=0.49847412109375;entryY=0;" edge="1" parent="1" source="4" target="5">
          <mxGeometry relative="1" as="geometry">
            <Array as="points" />
          </mxGeometry>
        </mxCell>
        <mxCell id="14" value="API Call" style="curved=1;startArrow=none;endArrow=block;exitX=0.21379793212068599;exitY=1;entryX=0.4973244863013699;entryY=0;" edge="1" parent="1" source="5" target="6">
          <mxGeometry relative="1" as="geometry">
            <Array as="points">
              <mxPoint x="61" y="363" />
            </Array>
          </mxGeometry>
        </mxCell>
        <mxCell id="15" value="API Success" style="curved=1;startArrow=none;endArrow=block;exitX=0.4973244863013699;exitY=1;entryX=0.49841209349593496;entryY=0;" edge="1" parent="1" source="6" target="7">
          <mxGeometry relative="1" as="geometry">
            <Array as="points" />
          </mxGeometry>
        </mxCell>
        <mxCell id="16" value="Update State" style="curved=1;startArrow=none;endArrow=block;exitX=0.49841209349593496;exitY=1;entryX=0.49400592672413796;entryY=0;" edge="1" parent="1" source="7" target="8">
          <mxGeometry relative="1" as="geometry">
            <Array as="points" />
          </mxGeometry>
        </mxCell>
        <mxCell id="17" value="API Failure" style="curved=1;startArrow=none;endArrow=block;exitX=0.783150310066814;exitY=1;entryX=0.49912021396396394;entryY=0;" edge="1" parent="1" source="5" target="9">
          <mxGeometry relative="1" as="geometry">
            <Array as="points">
              <mxPoint x="230" y="363" />
            </Array>
          </mxGeometry>
        </mxCell>
        <mxCell id="18" value="Update State" style="curved=1;startArrow=none;endArrow=block;exitX=0.49912021396396394;exitY=1;entryX=0.49484779094827586;entryY=0;" edge="1" parent="1" source="9" target="10">
          <mxGeometry relative="1" as="geometry">
            <Array as="points" />
          </mxGeometry>
        </mxCell>
      </root>
    </mxGraphModel>
  </diagram>
</mxfile>
